<?xml version="1.0" encoding="UTF-8" standalone="no"?>
<svg
   version="1.1"
   width="256.00037"
   height="328.82556"
   viewBox="0 0 256.00037 328.82556"
   xml:space="preserve"
   id="svg68"
   sodipodi:docname="flaskWhite.svg"
   inkscape:version="1.2.2 (732a01da63, 2022-12-09)"
   xmlns:inkscape="http://www.inkscape.org/namespaces/inkscape"
   xmlns:sodipodi="http://sodipodi.sourceforge.net/DTD/sodipodi-0.dtd"
   xmlns="http://www.w3.org/2000/svg"
   xmlns:svg="http://www.w3.org/2000/svg"><sodipodi:namedview
   id="namedview70"
   pagecolor="#505050"
   bordercolor="#ffffff"
   borderopacity="1"
   inkscape:showpageshadow="0"
   inkscape:pageopacity="0"
   inkscape:pagecheckerboard="1"
   inkscape:deskcolor="#505050"
   showgrid="false"
   inkscape:zoom="0.95092593"
   inkscape:cx="128.29601"
   inkscape:cy="165.10224"
   inkscape:window-width="2880"
   inkscape:window-height="1514"
   inkscape:window-x="3829"
   inkscape:window-y="289"
   inkscape:window-maximized="1"
   inkscape:current-layer="svg68" />
<desc
   id="desc54">Created with Fabric.js 5.2.4</desc>
<defs
   id="defs56">
</defs>

<g
   transform="translate(128.00037,164.40955)"
   id="9db98bf4-d16f-4cc0-a9ae-619f3f5b171e">
</g>

<g
   transform="translate(128.00037,164.40955)"
   id="g66">
<path
   style="opacity:1;fill:#e9e9e9;fill-rule:nonzero;stroke:#000000;stroke-width:0;stroke-linecap:butt;stroke-linejoin:miter;stroke-miterlimit:4;stroke-dasharray:none;stroke-dashoffset:0"
   vector-effect="non-scaling-stroke"
   transform="translate(-128,-164.41)"
   d="m 76.501,203.351 c -9.75,-7.67 -20.153,-15.02 -27.26,-25.377 C 34.28,159.71 22.764,138.569 14.891,116.349 10.131,101.899 8.501,86.408 2.361,72.519 -4.053,62.428 3.466,51.405 14.518,48.199 c 4.917,-0.948 13.568,-5.59 3.125,-2.268 -9.364,6.866 -10.266,-6.24 -0.666,-7.07 6.552,-0.869 8.964,-6.23 6.721,-11.056 -7.036,-4.59 17.055,-9.626 4.932,-16.473 -12.62,-13.62 17.66,-16.242 10.188,-0.771 -1.786,11.895 21.166,-2.185 15.836,11.554 5.415,6.599 20.272,1.505 19.899,10.757 7.886,0.542 10.593,7.173 17.988,7.683 7.677,3.466 21.58,6.192 24.188,14.837 -7.61,6.023 -25.227,-12.443 -26.078,4.232 2.302,24.638 1.715,50.017 10.726,73.478 4.262,14.204 14.6,25.385 23.931,36.45 8.933,10.834 21.03,18.466 33.363,24.887 10.815,5.1 22.475,8.48 34.265,10.606 4.78,-3.656 13.221,-17.25 20.675,-11.522 0.36,6.449 -14.796,13.471 -0.711,12.758 8.278,-2.498 14.013,6.394 20.826,-1.629 6.278,7.436 26.09,-4.747 21.625,10.45 -6.042,3.898 -14.85,1.543 -20.898,6.906 -9.972,-4.983 -17.912,4.453 -28.956,3.263 -12.26,2.196 -24.738,3.08 -37.167,3.098 -20.396,-1.609 -41.222,-2.288 -60.624,-9.39 -10.933,-3.176 -21.598,-9.402 -31.205,-15.628 z m 17.224,7.468 c 10.672,4.61 21.109,9.475 32.807,10.946 18.558,2.577 37.723,6.552 56.346,2.93 -8.428,-3.805 -17.145,1.478 -25.541,-2.72 -10.07,2.164 -20.878,-0.556 -31.12,-1.897 -11.64,-5.184 -24.206,-8.748 -35.107,-15.485 -13.628,-4.975 7.043,6.383 10.724,7.306 8.514,4.83 -9.365,-2.48 -11.89,-4.487 -7.132,-4.002 -8.04,-3.165 -0.704,0.896 1.477,0.864 2.936,1.773 4.485,2.511 z m -20.31,-14.353 c 10.345,3.832 -0.046,-7.272 -4.78,-6.63 -2.1,-3.643 -8.023,-5.945 -3.845,-7.9 -7.513,2.61 -7.873,-9.92 -11.403,-8.127 -7.952,-2.511 -3.094,-11.405 -12.569,-16.87 -0.864,-5.756 -9.41,-10.745 -12.13,-19.423 -1.203,-4.446 -9.658,-17.203 -4.466,-5.33 4.42,11.43 12.195,21.227 18.669,31.003 5.022,9.31 10.96,19.048 20.108,24.855 3.087,2.962 6.061,7.493 10.415,8.422 z M 43.624,163.751 c 0.358,-1.563 1.89,3.38 0,0 z m 42.183,37.305 c 2.288,-1.026 -3.296,-1.294 0,0 z m 5.61,2.048 c -0.581,-2.826 -2.563,1.582 0,0 z m 7.03,2.93 c 3.341,-3.187 -5.16,-2.01 0,0 z m 12.045,6.713 c 2.033,-3.001 -6.507,-1.13 0,0 z M 87.364,196.624 c 5.19,-3.362 -6.716,-0.047 0,0 z m 5.27,2.628 c -0.151,-1.773 -1.877,0.797 0,0 z m 26.345,16.445 c 4.237,2.675 24.738,5.859 11.902,1.098 -2.153,0.452 -23.803,-6.127 -11.902,-1.098 z M 77.156,183.12 c -0.412,-1.777 -6.58,-1.968 0,0 z m 12.26,7.155 c 3.197,-2.23 -6.624,-1.72 0,0 z m 10.318,6.323 c 4.584,-1.726 -7.427,-1.733 0,0 z M 72.16,177.686 c 4.97,3.811 20.05,0.49 7.611,-2.275 -5.656,-3.015 -18.407,-5.08 -9.715,1.818 z m 34.566,21.095 c 2.072,-3.525 -8.685,-2.015 0,0 z m -10.503,-8.345 c 12.15,3.434 -10.22,-7.69 -3,-1.268 l 1.603,0.726 z m 21.058,12.17 c 11.508,0.11 -10.398,-1.588 0,0 z M 67.734,171.028 c -0.452,-2.144 -2.838,0.178 0,0 z m 69.013,42.498 c 0.307,-3.87 -3.754,2.884 0,0 z m -49.37,-30.472 c -0.7,-2.04 -3.596,-0.085 0,0 z M 68.825,169.682 c 6.606,-0.398 -9.05,-2.91 0,0 z M 46.847,155.478 c -0.823,-3.17 -7.186,-5.694 0,0 z m 57.695,36.614 c -1.21,-1.381 -0.57,0.3 0,0 z m 35.905,22.037 c -0.11,-2.113 -1.955,0.796 0,0 z m -39.083,-25.32 c 0.648,-2.72 -5.636,-0.825 0,0 z M 74.612,171.853 c 4.918,-0.524 -7.88,-3.322 0,0 z m 45.252,28.119 c 7.663,-3.035 -7.468,-1.479 0,0 z M 96.329,183.997 c 8.827,1.136 -10.508,-6.01 -1.942,-0.642 z m 30.68,18.864 c 8.247,-4.923 5.527,11.542 13.989,1.393 8.343,-6.094 -7.207,7.533 3.073,1.086 7.441,-4.977 18.426,2.36 25.365,4.747 4.988,-0.242 9.841,4.316 14.96,1.542 9.848,-2.655 -19.263,-3.935 -11.633,-8.638 -9.01,2.624 -15.666,-3.125 -20.1,-8.899 -10.11,-2.335 -21.795,-7.5 -26.843,-16.452 -2.06,-3.354 2.97,0.478 -1.778,-5.015 -6.088,-5.415 -9.128,-11.569 -13.216,-18.153 -4.885,-2.603 -5.46,-10.273 -5.951,-0.254 0.04,-6.324 -5.898,-10.581 -7.35,-8.815 -0.026,-6.089 6.357,-3.035 1.89,-7.54 -0.96,-6.311 -4.126,-12.888 -5.075,-20.016 -1.476,-3.433 -0.21,-10.789 -5.047,-3.015 -1.76,8.22 -0.582,-10.096 2.158,-4.06 3.596,-6.16 -1.296,-5.435 -1.492,-4.584 2.342,-5.198 1.485,-12.575 -0.614,-9.763 1.249,-5.513 1.975,-20.284 -1.863,-17.662 2.327,-5.767 4.414,-26.38 -5.697,-18.518 -4.093,0.058 -11.187,1.485 -14.535,3.152 10.508,5.794 -1.06,2.092 -5.343,1.17 -0.556,5.362 -4.793,3.047 -10.09,3.099 8.462,1.046 -4.12,8.65 -8.964,5.696 -6.304,3.008 5.434,10.528 0.124,12.855 0.655,3.499 -9.652,-1.267 -8.847,6.828 -6.115,-2.578 -0.837,9.599 2.223,5.48 10.404,2.818 7.324,9.233 7.585,15.333 -1.694,3.55 -8.37,-8.35 -1.485,-7.8 -5.434,-8.823 -6.008,-3.192 -10.521,0.908 -1.046,0.295 11.509,5.832 3.63,8.566 6.931,1.073 7.134,7.141 8.547,10.98 4.165,4.34 3.307,-4.795 8.298,0.425 -3.16,-4.65 -16.715,-13.1 -5.8,-10.39 -0.06,-4.676 -1.976,-8.45 1.372,-8.359 3.316,-5.996 -3.472,14.792 3.996,7.168 2.065,-0.902 2.583,-6.003 6.297,0.484 5.394,5.31 1.949,9.153 -5.663,4.289 1.36,4.623 10.181,6.27 8.52,13.497 1.758,6.356 4.218,4.014 6.362,3.648 1.68,6.173 2.637,1.635 2.715,-1.308 7.696,1.65 5.891,6.2 8.303,9.378 5.303,2.392 -7.591,-16.224 1.512,-5.598 9.578,8.651 3.596,12.26 -5.002,10.875 5.44,-0.44 7.191,7.357 14,7.082 6.205,2.955 10.41,14.294 -0.288,9.572 -3.708,-3.348 -16.846,-7.474 -6.114,-1.111 9.9,4.59 17.773,7.33 27.326,13.092 6.834,4.878 9.788,10.467 12.378,11.574 -5.747,2.745 -17.314,-2.191 -8.723,-3.701 -5.362,-0.975 -11.39,-3.688 -6.258,2.988 4.368,3.649 15.465,3.262 17.46,3.674 -1.687,3.715 -4.583,4.01 0.065,4.297 -5.186,2.766 1.668,3.198 2.145,4.773 z m -10.606,-29.955 c -3.158,-3.302 -3.975,-9.481 -0.562,-4.108 1.753,0.707 5.605,10.105 0.562,4.108 z m 34.547,21.945 c 1.968,-0.13 0.058,1.496 0,0 z m -39.528,-30.04 c -0.126,-4.99 1.136,3.85 0,0 z m -3.434,-4.617 c -3.975,-7.67 5.002,2.171 0,0 z M 66.373,131.475 c 2.335,-0.623 1.151,3.987 0,0 z m 33.121,17.949 c 1.432,-5.382 1.681,4.513 0,0 z m -23.397,-16.27 c -1.647,-2.968 3.447,2.787 0,0 z m 20.075,6.435 c -3.76,-8.422 2.668,-4.604 0.837,1.38 z m -34.624,-23.09 c -1.68,-2.765 -4.46,-10.874 -3.564,-13.351 0.804,4.034 8.573,17.354 3.805,5.519 -5.263,-9.92 6.298,3.216 7.488,5.695 0.556,2.459 -3.25,-0.673 -0.674,5.1 -4.701,-6.572 -2.773,3.63 -7.055,-2.963 z M 50.85,109.124 c 0.438,-6.428 2.446,4.407 0,0 z m 4.813,1.66 c 2.295,-4.85 3.89,6.762 0,0 z m -11.581,-8.957 c -3.983,-3.964 -6.867,-7.612 0.189,-2.46 2.714,0.105 -6.041,-8.297 0.655,-2.668 7.035,1.283 3.471,11.543 -0.844,5.128 z m 6.081,-0.157 c 2.316,-2.295 1.23,2.256 0,0 z m 3.747,1.196 c -3.512,-6.572 4.257,2.76 0,0 z m -7.441,-7.107 c -11.58,-10.314 14.549,5.387 1.89,1.908 z m 33.185,19.276 c -5.015,-3.002 -1.334,-21.153 0.38,-8.742 4.872,-1.577 -0.27,6.415 3.36,6.336 -0.568,5.04 -2.196,6.854 -3.74,2.406 z m 12.274,7.258 c 0.49,-5.472 1.033,3.742 0,0 z m -2.131,-2.112 c 0.549,-2.334 0.052,2.753 0,0 z m -41.06,-27.81 c -7.44,-10.267 21.625,10.383 4.768,2.603 -1.76,-0.464 -3.884,-0.628 -4.768,-2.603 z m 23.639,12.53 c -0.705,-8.645 1.57,1.43 0,0 z m 17.943,11.513 c 1.386,-4.923 0.106,3.258 0,0 z M 49.882,88.454 c 4.421,-0.948 18.322,7.762 5.558,2.485 -1.418,-1.57 -4.446,-0.857 -5.558,-2.486 z m 37.971,18.924 c 0.473,-8.84 2.644,-5.277 0.02,1.269 l -0.02,-1.27 z M 53.171,85.375 c 1.804,-2.643 -4.788,-11.947 0.947,-3.336 2.48,1.968 7.173,3.296 3.028,4.126 6.519,5.749 -1.588,1.557 -3.975,-0.79 z m 32.805,19.244 c 1.244,-10.07 1.1,5.898 0,0 z M 49.404,76.076 c 1.38,-0.59 0.732,1.836 0,0 z m 8.56,5.094 c 2.202,-4.624 4.06,5.152 0,0 z m 24.135,13.424 c -0.02,-1.772 0.457,2.583 0,0 z m -1.4,-3.092 c -3.348,-8.266 3.12,4.374 0,0 z M 78.645,86.08 c -0.56,-3.414 1.91,4.29 0,0 z m 3.348,-5.44 c -2.301,-4.049 2.905,-17.852 3.487,-9.292 -2.427,6.67 -0.7,10.398 0.986,1.452 3.127,-7.036 -0.673,13.896 -4.473,7.84 z m 3.44,-20.526 c 1.002,-1.23 0.223,1.483 0,0 z m -5.746,113.21 c -1.361,-1.19 0.175,0.753 0,0 z m 11.835,5.984 c 6.584,1.694 6.552,-1.021 0.6,-1.832 -3.197,-2.974 -13.3,-6.133 -4.256,-0.366 0.596,1.518 2.486,1.478 3.656,2.198 z m -23.37,-15.525 c 3.622,2.709 13.659,7.664 5.165,1.035 2.864,-3.33 -5.48,-5.101 -2.713,-7.33 -7.043,-4.311 -5.56,-3.925 -0.621,-3.787 -8.462,-3.787 1.222,-3.499 0.765,-5.44 -3.263,-0.642 -16.211,-5.756 -8.593,0.418 -7.742,-3.944 -1.845,1.471 -4.185,0.902 -7.92,-2.158 7.05,6.03 -1.256,3.996 4.539,3.596 12.222,9.22 1.916,3.805 -1.353,1.955 7.377,4.918 9.521,6.401 z m 12.377,7.115 c 15.047,4.846 -7.383,-5.931 0,0 z m 63.364,38.384 c 0.196,-2.988 -2.054,2.55 0,0 z m 6.513,2.74 c 3.472,-3.36 0.144,5.362 5.754,-0.823 0.058,-4.428 -0.17,-7.042 -6.447,-1.662 -1.734,0.962 -2.504,5.035 0.693,2.486 z M 47.024,147.098 c -1.067,-4.192 -7.475,-4.174 0,0 z m 6.95,4.556 c -2.583,-4.282 -9.214,-3.877 0,0 z m 39.568,23.861 c 3.866,3.434 17.741,2.518 4.69,0.426 -1.93,-2.858 -12.268,-2.171 -4.69,-0.426 z m 54.385,33.593 c 5.944,-4.99 -5.76,2.223 0,0 z m 12.366,8.493 c 0.038,-1.602 -2.563,0.7 0,0 z m 0.02,-2.243 c 6.584,-6.97 -6.376,0.412 0,0 z M 29.917,132.776 c -5.61,-8.004 -3.485,-11.601 -8.899,-18.14 -1.028,-5.002 -9.285,-16.341 -4.27,-4.329 4.59,7.03 5.95,17.91 13.17,22.469 z m 128.329,80.365 c 12.118,-7.828 -4.969,-3.407 0,0 z m 9.247,3.622 c 6.068,-5.206 -3.839,-1.086 0,0 z M 44.963,138.248 c 1.734,-2.583 -4.485,-0.333 0,0 z m 120.6,76.043 c 5.872,-3.785 -1.353,-3.204 -1.065,0.346 z M 85.865,164.058 c -0.202,-2.563 -3.105,0.216 0,0 z m 4.924,2.832 c -1.569,-3.165 -2.406,0.497 0,0 z m 84.197,49.959 c 7.526,-5.429 -4.557,-1.041 -1.576,1.033 z m -2.883,-1.393 c 6.133,-5.134 -6.468,2.275 0,0 z m 14.724,9.801 c 4.115,-2.753 -5.001,-0.889 0,0 z M 48.737,136.385 c 5.512,1.235 22.042,13.581 12.293,0.857 -4.995,-1.478 -2,-13.687 -7.094,-11.529 3.42,5.715 2.81,8.14 -4.37,4.545 -9.016,-4.408 -5.067,2.178 -3.3,3.996 -2.408,0.549 3.177,2.086 2.47,2.13 z M 23.607,116.54 c 0.987,-4.088 -9.096,-22.469 -4.76,-9.214 1.562,2.779 1.4,8.042 4.76,9.214 z m 46.126,28.437 c -2.844,-2.373 -0.137,-0.34 0,0 z m 6.99,1.63 c 0,-4.33 -7.728,-1.76 0,0 z m 60.618,38.207 c -1.157,-2.957 -4.57,-0.066 0,0 z m 2.91,2.124 c -0.433,-1.654 -1.682,0.321 0,0 z m 24.024,15.138 c 2.309,-1.706 -2.884,-0.221 0,0 z M 36.156,119.744 c 6.61,-2.558 -7.083,-1.825 0,0 z m 95.848,60.38 c -0.077,-4.276 -4.217,1.067 0,0 z M 33.546,113.655 c 4.244,-1.43 -3.93,-0.94 0,0 z m 12.32,5.97 c -0.073,-1.405 -1.301,0.537 0,0 z m 150.3,92.168 c 5.46,-1.105 17.904,2.78 19.911,-1.444 -6.63,-0.164 -22.932,-4.683 -23.704,1.071 l 1.452,0.23 2.342,0.143 z M 49.782,120.613 c 0.1,-4.336 -3.38,-0.163 0,0 z M 17.39,98.138 c -1.471,-8.26 -5.598,-1.25 0,0 z m 7.722,1.942 c 0.099,-2.655 -7.07,-2.387 0,0 z m 4.414,2.171 c -1.275,-1.034 -0.994,1.3 0,0 z M 57.31,120.07 c 1.309,-1.204 -3.099,-0.889 0,0 z M 26.59,97.36 c -0.751,-6.238 -8.952,-0.935 0,0 z M 10.745,87.08 c -0.223,-2.877 -1.544,1.085 0,0 z m 2.36,-1.777 c -0.385,-3.415 -2.027,0.43 0,0 z M 26.12,93.07 c 5.506,-2.158 -10.026,-4.473 -1.125,-0.405 z m 174.226,107.62 c 3.524,-3.23 -4.473,-1 0,0 z m 21.049,10.907 c 1.413,-4.171 -3.558,0.55 0,0 z M 27.45,86.25 c 0.583,-4.04 -4.367,0.804 0,0 z M 8.927,73.84 C 7.933,68.138 8.07,58.126 17.585,61.507 c -12.7,2.524 8.795,15.79 6.081,5.315 5.342,0.263 10.45,-3.157 7.644,2.027 10.528,-1.157 17.82,-10.285 27.987,-9.003 7.918,-1.052 16.576,-1.844 25.11,-5.035 7.016,-0.504 13.77,-8.057 9.927,-12.536 -9.567,-0.81 -19.586,0.386 -30.159,2.492 -11.717,2.432 -22.362,7.061 -34.186,9.05 -11.529,1.55 2.315,4.263 -0.988,4.871 -6.01,2.086 7.174,3.492 -0.778,5.695 -4.91,-0.934 -10.024,-2.621 -7.925,-7.8 C 9.26,58.021 -0.444,62.598 8.28,73.832 l 0.648,0.006 z M 35.535,60.29 c 2.583,-9.533 13.862,7.848 4.237,1.269 -1.145,-0.864 -3.042,-1.564 -4.237,-1.269 z m 0.502,-4.624 c 3.735,-2.778 1.982,1.564 0,0 z m 4.741,0.08 c 0.342,-4.388 10.863,2.321 1.734,1.576 l -1.734,-1.577 z m 6.487,-2.609 c 2.374,-2.774 0.688,2.458 0,0 z m 1.662,-1.111 c 3.949,-4.741 22.343,-3.029 8.879,-0.466 -3.61,-2.72 -6.375,1.602 -8.879,0.466 z m 24.01,-3.702 c -0.594,-12.955 11.934,4.597 0,0 z m 6.815,-0.04 c 2.49,-6.525 9.67,-2.621 1.157,-1.314 0.182,0.7 -0.255,3.375 -1.157,1.314 z M 24.765,82.902 c 7.44,-4.558 -7.9,-3.955 0,0 z m 5.505,1.524 c 2.61,-2.772 -5.676,-1.125 0,0 z M 14.054,72.924 c 4.25,-3.27 -5.035,-1.242 0,0 z m 219.764,137.483 c 0.124,-3.793 -3.25,1.706 0,0 z m -22.331,-15.243 c 0.634,-4.36 -2.87,0.38 0,0 z m 28.471,16.715 c 5.945,0.02 18.014,-1.852 5.08,-1.845 -2.033,0.315 -11.828,0.25 -5.08,1.845 z M 35.11,81.75 c 4.813,-0.327 7.526,-5.304 -0.936,-5.022 -13.11,-1.353 11.567,4.493 -1.68,2.819 -1.778,1.177 2.51,2.53 2.616,2.203 z m 4.237,2.146 c -0.504,-3.087 -1.492,1.64 0,0 z M 44.375,70.49 c 2.086,-2.59 -2.89,-0.693 0,0 z M 28.367,43.74 c 8.593,-2.916 20.337,-6.199 24.392,1.44 -4.127,-4.963 -1.667,-9.855 2.23,-2.59 5.512,7.344 8.27,-3.341 4.687,-5.807 4.088,5.074 8.73,7.475 2.733,0.322 6.52,-7.841 -13.045,1.026 -17.491,0.934 -2.138,0.96 -22.089,5.087 -16.55,5.701 z m 5.035,-9.637 c 4.899,-3.694 16.943,2.203 9.214,-3.676 -0.758,-0.666 -16.922,4.46 -9.214,3.676 z m 17.859,0.738 c 5.728,0.144 -2.471,-7.703 4.355,-4.146 -1.118,-3.661 -7.951,-4.348 -11.292,-5.812 -1.89,3.348 3.843,10.004 6.937,9.958 z M 36.534,18.63 c 1.982,-2.687 -3.478,1.367 0,0 z m 7.3,1.745 C 53.072,19.153 41.478,16.4 41.968,20.278 l 1.865,0.097 z M 30.204,9.717 c -6.507,-8.494 12.235,1.426 5.623,-7.468 -5.564,-4.426 -10.906,4.99 -5.623,7.468 z m 83.47,44.957 c 2.984,-5.285 -12.312,-7.128 -2.007,-1.872 0.948,0.315 0.734,2.237 2.007,1.872 z M 53.108,251.495 c -0.66,2.606 -1.069,6.979 -1.222,13.117 0,1.206 -0.543,1.81 -1.632,1.81 -1.089,0 -1.847,-0.527 -2.276,-1.576 -1.166,-2.838 -2.27,-4.817 -3.324,-5.947 -1.242,-1.32 -2.894,-2.118 -4.955,-2.39 -2.215,-0.35 -7.733,-0.525 -16.555,-0.525 -2.02,0 -3.343,0.215 -3.963,0.644 -0.389,0.27 -0.583,0.854 -0.583,1.749 v 26.409 c 0,0.894 0.563,1.32 1.688,1.283 3.461,-0.04 8.474,-0.276 15.04,-0.7 1.284,-0.158 2.15,-0.575 2.596,-1.256 0.45,-0.68 0.887,-2.436 1.312,-5.275 0.27,-1.555 1.186,-2.158 2.74,-1.806 1.32,0.272 1.888,0.875 1.693,1.806 -1.09,5.288 -1.442,12.167 -1.053,20.64 0.041,1.008 -0.6,1.554 -1.923,1.632 -1.09,0.117 -1.77,-0.467 -2.04,-1.75 -1.008,-4.857 -2.887,-7.453 -5.624,-7.785 -2.74,-0.328 -7.203,-0.494 -13.38,-0.494 -0.7,0 -1.049,0.251 -1.049,0.757 v 26.235 c 0,1.944 0.717,3.267 2.154,3.964 1.13,0.583 3.558,1.109 7.287,1.575 1.907,0.194 2.74,1.032 2.51,2.506 -0.235,1.283 -1.943,1.789 -5.133,1.517 -9.21,-0.74 -16.81,-0.7 -22.793,0.119 -1.673,0.23 -2.506,-0.45 -2.506,-2.041 0,-1.013 0.833,-1.595 2.506,-1.75 3.809,-0.429 5.712,-3.772 5.712,-10.027 v -49.908 c 0,-2.562 -0.458,-4.534 -1.369,-5.915 -0.915,-1.38 -2.616,-2.635 -5.1,-3.761 -1.556,-0.7 -2.138,-1.651 -1.75,-2.857 0.194,-0.737 0.506,-1.147 0.931,-1.223 0.389,-0.118 1.421,-0.04 3.089,0.234 2.45,0.388 8.223,0.583 17.316,0.583 10.729,0 19.996,-0.235 27.81,-0.7 2.603,-0.158 3.907,0.057 3.907,0.64 0,0.158 -0.02,0.311 -0.061,0.466 z m 37.807,74.007 c 0,1.555 -0.875,2.235 -2.623,2.04 -5.36,-0.506 -12.008,-0.43 -19.936,0.231 -1.595,0.158 -2.574,0.117 -2.946,-0.113 -0.37,-0.235 -0.552,-0.875 -0.552,-1.928 0,-0.93 1.057,-1.716 3.175,-2.36 2.121,-0.639 3.177,-2.554 3.177,-5.74 V 264.87 c 0,-3.15 -0.457,-5.462 -1.368,-6.94 -0.915,-1.477 -2.518,-2.623 -4.81,-3.437 -1.206,-0.43 -1.81,-1.032 -1.81,-1.81 0,-1.166 0.875,-2.04 2.624,-2.623 2.644,-0.855 5.385,-2.174 8.223,-3.964 2.332,-1.4 3.81,-2.097 4.429,-2.097 1.437,0 2.159,0.988 2.159,2.971 0,-0.153 -0.078,1.79 -0.236,5.83 -0.113,3.847 -0.153,7.636 -0.113,11.37 l 0.23,52.06 c 0,2.372 0.584,4.093 1.75,5.162 1.166,1.068 3.17,1.777 6.004,2.126 1.748,0.193 2.623,0.854 2.623,1.983 z m 52.729,-3.438 c 0,0.818 -1.486,2.05 -4.458,3.7 -2.975,1.653 -5.356,2.479 -7.142,2.479 -1.518,0 -2.857,-0.737 -4.023,-2.215 -1.166,-1.477 -1.985,-2.214 -2.45,-2.214 -0.349,0 -2.195,0.797 -5.54,2.388 -3.339,1.595 -6.703,2.393 -10.084,2.393 -3.186,0 -5.85,-0.935 -7.987,-2.797 -2.332,-2.062 -3.498,-4.86 -3.498,-8.398 0,-6.724 7.696,-11.542 23.088,-14.457 2.64,-0.506 3.984,-1.575 4.02,-3.207 l 0.119,-3.732 c 0.234,-6.373 -2.584,-9.559 -8.454,-9.559 -1.672,0 -3.255,1.494 -4.754,4.486 -1.493,2.996 -3.643,4.607 -6.441,4.842 -3.186,0.308 -4.781,-1.032 -4.781,-4.024 0,-1.867 2.372,-4.04 7.113,-6.53 4.976,-2.603 9.758,-3.907 14.344,-3.907 7.888,0 11.794,3.753 11.717,11.254 l -0.235,24.017 c -0.036,2.527 1.033,3.789 3.207,3.789 0.429,0 1.246,-0.096 2.449,-0.291 1.207,-0.194 1.907,-0.292 2.102,-0.292 1.125,0 1.688,0.761 1.688,2.275 z m -17.955,-13.29 c 0.04,-0.973 -0.187,-1.617 -0.673,-1.924 -0.486,-0.311 -1.25,-0.373 -2.3,-0.178 -9.368,1.672 -14.052,4.724 -14.052,9.154 0,4.47 2.429,6.704 7.287,6.704 1.944,0 3.948,-0.368 6.004,-1.105 2.413,-0.858 3.616,-1.886 3.616,-3.093 l 0.118,-9.559 z m 61.299,6.583 c 0,4.12 -1.588,7.397 -4.753,9.825 -3.167,2.43 -7.49,3.644 -12.972,3.644 -3.652,0 -7.308,-0.388 -10.96,-1.166 -3.15,-0.7 -4.976,-1.34 -5.481,-1.923 -0.312,-0.547 -0.466,-3.206 -0.466,-7.988 0,-2.06 0.466,-3.13 1.4,-3.206 0.932,-0.118 1.73,0.389 2.39,1.514 2.914,5.093 7.618,7.64 14.109,7.64 5.477,0 8.218,-1.907 8.218,-5.717 0,-1.668 -0.62,-3.069 -1.866,-4.195 -1.361,-1.283 -4,-2.78 -7.927,-4.49 -5.676,-2.525 -9.466,-4.74 -11.369,-6.647 -2.061,-2.02 -3.09,-4.74 -3.09,-8.162 0,-4.199 1.613,-7.461 4.839,-9.793 2.992,-2.256 6.996,-3.381 12.008,-3.381 3.15,0 6.025,0.25 8.632,0.757 2.798,0.506 4.255,1.126 4.372,1.866 0.308,2.174 0.952,5.324 1.924,9.446 0.117,0.502 -0.43,0.911 -1.632,1.222 -1.284,0.272 -2.138,0.057 -2.567,-0.64 -3.069,-5.016 -6.955,-7.522 -11.66,-7.522 -5.324,0 -7.987,1.71 -7.987,5.13 0,1.906 0.72,3.42 2.157,4.546 1.284,0.972 4.295,2.49 9.037,4.551 4.975,2.137 8.356,4.061 10.146,5.77 2.332,2.214 3.498,5.19 3.498,8.919 z m 68.587,10.203 c 0,1.36 -0.915,2.08 -2.741,2.157 -2.721,0.04 -6.28,0.234 -10.668,0.583 -2.178,0.429 -3.733,0.158 -4.664,-0.814 -6.142,-6.607 -11.352,-13.526 -15.628,-20.757 -0.348,-0.62 -0.794,-0.931 -1.34,-0.931 -0.66,0 -1.805,0.583 -3.437,1.75 -1.83,1.008 -2.741,2.448 -2.741,4.31 0,1.324 0.036,3.227 0.117,5.718 0.078,2.485 0.697,4.116 1.863,4.894 0.817,0.547 2.705,0.972 5.655,1.284 1.827,0.234 2.742,0.914 2.742,2.04 0,0.895 -0.146,1.45 -0.438,1.66 -0.29,0.214 -1.06,0.263 -2.304,0.146 -3.886,-0.348 -10.453,-0.154 -19.703,0.583 -2.332,0.194 -3.596,-0.098 -3.79,-0.875 -0.077,-0.27 -0.118,-0.66 -0.118,-1.166 0,-1.202 1.187,-2.118 3.56,-2.736 2.137,-0.548 3.205,-3.054 3.205,-7.523 v -50.955 c 0,-3.186 -0.31,-5.401 -0.935,-6.644 -0.854,-1.595 -2.644,-2.839 -5.364,-3.733 -1.28,-0.425 -1.923,-1.028 -1.923,-1.806 0,-1.13 0.915,-2.004 2.74,-2.623 2.93795,-0.98269 5.73907,-2.33486 8.336,-4.024 2.139,-1.397 3.462,-2.098 3.964,-2.098 1.596,0 2.393,1.008 2.393,3.033 0,-0.275 -0.02,1.652 -0.061,5.77 -0.0419,3.80918 -0.0606,7.61859 -0.056,11.428 l 0.117,36.494 c 0,1.012 0.271,1.514 0.814,1.514 0.583,0 1.478,-0.502 2.684,-1.514 3.226,-2.527 7.19,-5.83 11.891,-9.911 0.935,-0.971 1.4,-1.749 1.4,-2.332 0,-1.048 -1.574,-1.79 -4.72,-2.214 -1.36,-0.159 -2.004,-0.915 -1.928,-2.276 0.118,-1.36 0.799,-1.943 2.041,-1.749 2.802,0.39 6.883,0.604 12.243,0.644 3.733,0.036 7.445,0.057 11.138,0.057 1.202,0.04 1.806,0.757 1.806,2.158 0,1.32 -0.952,2.04 -2.855,2.158 -2.996,0.113 -5.814,0.793 -8.453,2.04 -3.693,1.668 -7.64,4.603 -11.838,8.802 -0.308,0.234 -0.466,0.525 -0.466,0.874 0,0.543 0.66,1.847 1.984,3.907 4.858,7.385 9.445,12.96 13.757,16.732 2.761,2.37 5.344,3.555 7.753,3.555 1.79,0 2.898,0.126 3.323,0.38 0.43,0.253 0.645,0.924 0.645,2.01 z"
   stroke-linecap="round"
   id="path64" />
</g>
</svg>
