<?xml version="1.0" encoding="UTF-8" standalone="no"?>
<svg
   width="2500"
   height="708"
   viewBox="0 0 512 145"
   preserveAspectRatio="xMinYMin meet"
   version="1.1"
   id="svg428"
   sodipodi:docname="nodejs.svg"
   inkscape:version="1.2.2 (732a01da63, 2022-12-09)"
   xmlns:inkscape="http://www.inkscape.org/namespaces/inkscape"
   xmlns:sodipodi="http://sodipodi.sourceforge.net/DTD/sodipodi-0.dtd"
   xmlns="http://www.w3.org/2000/svg"
   xmlns:svg="http://www.w3.org/2000/svg">
  <defs
     id="defs432" />
  <sodipodi:namedview
     id="namedview430"
     pagecolor="#505050"
     bordercolor="#ffffff"
     borderopacity="1"
     inkscape:showpageshadow="0"
     inkscape:pageopacity="0"
     inkscape:pagecheckerboard="1"
     inkscape:deskcolor="#505050"
     showgrid="false"
     inkscape:zoom="0.6036"
     inkscape:cx="1250.8284"
     inkscape:cy="350.39761"
     inkscape:window-width="2880"
     inkscape:window-height="1514"
     inkscape:window-x="3829"
     inkscape:window-y="289"
     inkscape:window-maximized="1"
     inkscape:current-layer="svg428" />
  <g
     fill="#83CD29"
     id="g422">
    <path
       d="M471.05 51.611c-1.244 0-2.454.257-3.525.863l-33.888 19.57c-2.193 1.264-3.526 3.65-3.526 6.189v39.069c0 2.537 1.333 4.92 3.526 6.187l8.85 5.109c4.3 2.119 5.885 2.086 7.842 2.086 6.366 0 10.001-3.863 10.001-10.576V81.542c0-.545-.472-.935-1.007-.935h-4.245c-.544 0-1.007.39-1.007.935v38.566c0 2.975-3.1 5.968-8.13 3.453l-9.21-5.396c-.326-.177-.576-.49-.576-.863v-39.07c0-.37.247-.747.576-.935L470.547 57.8a.998.998 0 0 1 1.007 0l33.817 19.498c.322.194.576.553.576.936v39.069c0 .373-.188.755-.504.935l-33.889 19.498c-.29.173-.69.173-1.007 0l-8.706-5.18a.905.905 0 0 0-.863 0c-2.403 1.362-2.855 1.52-5.109 2.302-.555.194-1.398.495.288 1.44l11.368 6.69a6.995 6.995 0 0 0 3.526.936 6.949 6.949 0 0 0 3.525-.935l33.889-19.499c2.193-1.275 3.525-3.65 3.525-6.187v-39.07c0-2.538-1.332-4.92-3.525-6.187l-33.889-19.57c-1.062-.607-2.28-.864-3.525-.864z"
       id="path418" />
    <path
       d="M480.116 79.528c-9.65 0-15.397 4.107-15.397 10.937 0 7.408 5.704 9.444 14.966 10.36 11.08 1.085 11.943 2.712 11.943 4.893 0 3.783-3.016 5.396-10.144 5.396-8.957 0-10.925-2.236-11.584-6.691-.078-.478-.447-.864-.936-.864h-4.389c-.54 0-1.007.466-1.007 1.008 0 5.703 3.102 12.447 17.916 12.447 10.723 0 16.908-4.209 16.908-11.584 0-7.31-4.996-9.273-15.398-10.648-10.51-1.391-11.512-2.072-11.512-4.533 0-2.032.85-4.75 8.634-4.75 6.954 0 9.524 1.5 10.577 6.189.092.44.48.791.935.791h4.39c.27 0 .532-.166.719-.36.184-.207.314-.44.288-.719-.68-8.074-6.064-11.872-16.909-11.872z"
       id="path420" />
  </g>
  <path
     d="M271.821.383a2.181 2.181 0 0 0-1.08.287 2.18 2.18 0 0 0-1.079 1.871v55.042c0 .54-.251 1.024-.719 1.295a1.501 1.501 0 0 1-1.511 0l-8.994-5.18a4.31 4.31 0 0 0-4.317 0l-35.903 20.721c-1.342.775-2.158 2.264-2.158 3.814v41.443c0 1.548.817 2.966 2.158 3.741l35.903 20.722a4.3 4.3 0 0 0 4.317 0l35.903-20.722a4.308 4.308 0 0 0 2.159-3.741V16.356a4.386 4.386 0 0 0-2.23-3.814L272.9.598c-.335-.187-.707-.22-1.079-.215zM40.861 52.115c-.684.027-1.328.147-1.942.503L3.015 73.34a4.3 4.3 0 0 0-2.158 3.741L.929 132.7c0 .773.399 1.492 1.079 1.87a2.096 2.096 0 0 0 2.159 0l21.297-12.231c1.349-.802 2.23-2.196 2.23-3.742V92.623c0-1.55.815-2.972 2.159-3.742l9.065-5.252a4.251 4.251 0 0 1 2.159-.576c.74 0 1.5.185 2.158.576l9.066 5.252a4.296 4.296 0 0 1 2.159 3.742v25.973c0 1.546.89 2.95 2.23 3.742l21.297 12.232a2.096 2.096 0 0 0 2.159 0 2.164 2.164 0 0 0 1.08-1.871l.07-55.618a4.28 4.28 0 0 0-2.158-3.741L43.235 52.618c-.607-.356-1.253-.475-1.942-.503h-.432zm322.624.503c-.75 0-1.485.19-2.158.576l-35.903 20.722a4.306 4.306 0 0 0-2.159 3.741V119.1c0 1.559.878 2.971 2.23 3.742l35.616 20.29c1.315.75 2.921.807 4.245.07l21.585-12.015c.685-.38 1.148-1.09 1.151-1.87a2.126 2.126 0 0 0-1.079-1.871l-36.119-20.722c-.676-.386-1.151-1.167-1.151-1.943v-12.95c0-.775.48-1.485 1.151-1.871l11.224-6.476a2.155 2.155 0 0 1 2.159 0L375.5 89.96a2.152 2.152 0 0 1 1.08 1.87v10.217a2.15 2.15 0 0 0 1.079 1.87c.673.389 1.487.39 2.158 0L401.331 91.4a4.325 4.325 0 0 0 2.159-3.742v-10c0-1.545-.82-2.966-2.159-3.742l-35.687-20.722a4.279 4.279 0 0 0-2.159-.575zm-107.35 30.939c.188 0 .408.046.576.143l12.304 7.123c.334.193.576.55.576.935v14.246c0 .387-.24.743-.576.936l-12.304 7.123a1.088 1.088 0 0 1-1.079 0l-12.303-7.123c-.335-.194-.576-.549-.576-.936V91.758c0-.386.242-.74.576-.935l12.303-7.122a.948.948 0 0 1 .504-.143v-.001z"
     fill="#404137"
     id="path424" />
  <path
     d="M148.714 52.402c-.748 0-1.488.19-2.158.576l-35.903 20.65c-1.343.773-2.159 2.265-2.159 3.813v41.443c0 1.55.817 2.966 2.159 3.742l35.903 20.721a4.297 4.297 0 0 0 4.317 0l35.903-20.721a4.308 4.308 0 0 0 2.158-3.742V77.441c0-1.55-.816-3.04-2.158-3.813l-35.903-20.65a4.297 4.297 0 0 0-2.159-.576zM363.413 89.385c-.143 0-.302 0-.431.072l-6.907 4.029a.84.84 0 0 0-.432.72v7.914c0 .298.172.571.432.72l6.907 3.957c.259.15.535.15.791 0l6.907-3.958a.846.846 0 0 0 .432-.719v-7.915a.846.846 0 0 0-.432-.719l-6.907-4.03c-.128-.075-.216-.07-.36-.07z"
     fill="#83CD29"
     id="path426" />
  <path
     style="fill:#ffffff;stroke-width:1.65673"
     d="M 13.25381,657.26011 C 11.887011,656.81985 9.464049,655.32306 7.86945,653.93393 5.1509402,651.56572 4.9701789,642.65971 4.9701789,511.0883 V 370.76833 l 3.7276342,-5.37247 c 2.8286989,-4.07688 25.4688669,-17.90061 93.8824969,-57.32319 49.58517,-28.5729 91.70743,-52.17829 93.60503,-52.45642 1.8976,-0.27814 5.49234,-0.23019 7.98833,0.10655 5.46934,0.73788 180.91455,101.46322 186.81374,107.25215 l 4.14181,4.0644 0.44124,142.2997 0.44125,142.29968 -4.33325,3.40855 c -3.89127,3.06085 -4.8657,3.18446 -9.55324,1.21173 -4.38801,-1.84665 -95.63327,-53.81156 -106.50148,-60.65346 -8.85568,-5.57492 -8.89031,-5.88547 -8.897,-79.79092 -0.007,-65.1109 -0.16678,-68.76191 -3.25341,-73.82421 -3.58963,-5.88724 -6.49358,-7.88736 -36.40738,-25.07573 -15.09095,-8.67121 -22.21096,-11.84511 -26.5722,-11.84511 -4.51353,0 -12.33399,3.71447 -32.26472,15.32472 -14.46895,8.4286 -27.85937,17.42833 -29.75651,19.9994 -3.3347,4.51936 -3.47685,7.02437 -4.27769,75.38105 -0.74907,63.93847 -1.10671,71.09964 -3.73636,74.81509 -1.62505,2.29604 -26.48131,17.68165 -56.340327,34.87371 -57.859521,33.31405 -57.208779,32.97409 -60.864333,31.79656 z"
     id="path434"
     transform="scale(0.20480226)" />
  <path
     style="fill:#ffffff;stroke-width:1.65673"
     d="m 1246.6865,705.37861 c -1.8224,-0.45694 -24.9337,-13.3295 -51.3585,-28.60571 -26.4248,-15.2762 -67.3702,-38.91505 -90.9899,-52.53077 -35.6413,-20.54564 -43.4601,-25.71647 -45.9742,-30.40422 -2.843,-5.30115 -3.0292,-12.08832 -3.0292,-110.40595 0,-95.32813 0.2544,-105.2912 2.8269,-110.68584 2.3395,-4.90581 6.6969,-8.16229 25.2651,-18.88156 12.341,-7.12432 53.7387,-31.04975 91.995,-53.16764 56.9929,-32.95056 70.6762,-40.21437 75.7539,-40.21437 4.7511,0 12.1021,3.37278 31.5035,14.45433 21.3774,12.2102 25.9494,14.23255 29.4481,13.02591 l 4.1419,-1.42841 0.8283,-139.67345 c 0.8057,-135.846493 0.9165,-139.7378646 4.0443,-142.0246421 1.7688,-1.2931592 4.5897,-2.3511984 6.2687,-2.3511984 1.679,0 15.8879,7.1827968 31.5753,15.9617715 15.6874,8.778974 38.8832,21.639312 51.5462,28.578528 12.6629,6.939217 25.896,15.29705 29.4069,18.572961 l 6.3833,5.956203 V 331.89097 592.22739 l -4.556,4.93248 c -4.0847,4.42224 -165.591,98.85761 -181.8257,106.31647 -6.877,3.15954 -7.7435,3.28392 -13.2539,1.90227 z m 38.3998,-165.93621 31.1828,-18.04603 V 482.93313 444.4699 l -32.6806,-19.03022 -32.6805,-19.0302 -32.7602,19.0242 -32.7601,19.02421 -0.4451,37.36875 c -0.3429,28.79099 0.044,37.82583 1.6866,39.35999 4.8275,4.50959 60.3349,36.04139 63.6659,36.16637 1.9847,0.0744 17.6407,-7.98531 34.7912,-17.9106 z"
     id="path436"
     transform="scale(0.20480226)" />
  <path
     style="fill:#ffffff;stroke-width:1.65673"
     d="m 1760.2717,695.93641 c -6.3784,-3.25043 -48.5007,-26.98094 -93.605,-52.73447 -72.5043,-41.39821 -82.3437,-47.494 -84.9047,-52.60106 -2.6668,-5.31801 -2.8969,-14.13996 -2.8993,-111.1478 V 374.08179 l 3.7276,-5.44718 c 2.4568,-3.59014 10.7877,-9.50419 24.4367,-17.34744 11.39,-6.54515 52.0212,-30.02456 90.2916,-52.17647 51.0889,-29.57161 71.3438,-40.47029 76.2094,-41.00648 7.0903,-0.78135 1.2167,-4.01808 153.2323,84.43961 19.5826,11.3951 37.1025,22.72442 38.9331,25.17628 3.0579,4.09579 3.3283,6.99523 3.3283,35.69275 0,29.10084 -0.2368,31.55439 -3.4668,35.91231 -4.6149,6.22645 -110.8632,68.38552 -116.9661,68.42939 -8.4697,0.0608 -9.6201,-4.22459 -9.6201,-35.83595 v -28.50383 l -4.4741,-3.51932 c -2.4607,-1.93564 -16.9677,-10.6357 -32.2376,-19.33351 -22.9207,-13.05571 -28.4384,-15.56938 -31.6327,-14.41073 -2.1281,0.7719 -16.6711,8.82871 -32.3177,17.90402 -20.9431,12.14731 -28.9266,17.65506 -30.261,20.87662 -1.1706,2.82598 -1.631,16.18063 -1.2997,37.70185 0.4426,28.74681 0.901,33.71316 3.3361,36.14507 1.5527,1.55059 42.0578,25.31829 90.0114,52.81711 47.9535,27.49881 88.619,51.22291 90.3678,52.72021 3.5922,3.07578 4.2578,11.43708 1.1086,13.9264 -5.7716,4.56216 -110.8913,61.86633 -114.9616,62.66931 -3.4449,0.67961 -7.9001,-0.67748 -16.334,-4.9754 z"
     id="path438"
     transform="scale(0.20480226)" />
</svg>
